<?xml version="1.0" standalone="no"?> <!DOCTYPE svg PUBLIC "-//W3C//DTD SVG 1.0//EN" "http://www.w3.org/TR/2001/REC-SVG-20010904/DTD/svg10.dtd" > <svg xmlns="http://www.w3.org/2000/svg" width="100%" height="100%">
<defs >
<font horiz-adv-x="455" ><font-face
    font-family=""
    units-per-em="1000"
    panose-1="2 0 5 5 5 0 0 2 0 4"
    ascent="939"
    descent="-321"
    alphabetic="0" />
<missing-glyph horiz-adv-x="533" d="M118 0Q101 0 90 3T74 15T66 36T63 70V529Q63 540 64 547T69 560T79 567T94 570H415Q434 570 444 569T460 562T468 545T470 514V41Q470 30 469 23T464 10T454 3T439 0H118ZM432 529H101V41H432V529ZM374 373Q374 359 370 348T358
327T336 311T304 299Q278 290 266 284T247 270T240 248T238 207Q236 207 235 207T232 206T229 205T226 205Q218 205 213 207T204 213T199 225T197 242Q197 262 204 275T224 296T286 322Q298 326 306 329T320 337T331 350T335 369Q335 387 324 401T294 423T257 436T220
440Q213 440 209 440T199 440T189 439T180 437Q178 438 176 440T173 444T172 448T171 454Q171 460 174 465T183 473T200 478T225 480Q253 480 279 473T327 453T361 419T374 373ZM264 124Q264 118 263 113T257 104T247 97T231 94Q223 94 217 96T208 101T202 110T200
121Q200 128 202 133T209 143T220 149T234 151Q242 151 248 149T257 143T262 135T264 124Z" />
<glyph unicode=" " glyph-name="space" horiz-adv-x="191" />
<glyph unicode="!" glyph-name="exclam" horiz-adv-x="236" d="M156 612L146 184Q144 183 142 183T135 182T127 181T117 180Q110 180 106 181T98 184T93 190T91 200Q91 202 91 204T90 209T90 215T90 222L83 563Q83 579 85 589T93 605T105 614T124 617Q129 617
133 617T141 616T148 615T156 612ZM165 43Q165 34 163 27T155 13T141 3T117 -1Q105 -1 96 1T81 9T73 21T70 39Q70 48 73 56T84 70T100 79T122 83Q134 83 142 80T156 71T163 58T165 43Z" />
<glyph unicode="&quot;" glyph-name="quotedbl" horiz-adv-x="395" d="M149 534L148 507L146 382Q146 376 144 372T138 364T129 360T116 358Q112 358 108 358T100 359T92 361T85 363L82 507Q82 514 84 520T90 530T102 537T119 540Q124 540 128 540T136 539T143
537T149 534ZM313 534L312 507L310 382Q310 376 308 372T302 364T293 360T280 358Q276 358 272 358T264 359T256 361T249 363L246 507Q246 514 248 520T254 530T266 537T283 540Q288 540 292 540T301 539T308 537T313 534Z" />
<glyph unicode="#" glyph-name="numbersign" horiz-adv-x="414" d="M393 269Q393 259 390 253T381 243T368 238T349 236H318L306 151L378 152Q379 150 380 147T382 142T383 136T384 130Q384 120 381 114T372 104T358 99T337 97H299L288 17Q287 11 286 7T281 1T273
-2T260 -3Q257 -3 254 -3T248 -1T241 1T236 5L249 98L146 99L135 17Q134 11 132 7T127 1T119 -2T106 -3Q103 -3 100 -3T94 -1T87 1T82 5L96 100L36 101Q35 103 34 106T32 112T31 118T30 125Q30 130 31 135T37 143T47 149T61 151H103L115 239L45 240Q43 242 42 245T40
251T39 257T38 264Q38 270 40 274T45 282T55 288T69 290H121L129 351Q131 365 133 374T139 388T148 395T163 397Q167 397 170 397T176 396T181 394T187 391L180 352L172 290H274L282 351Q284 365 286 374T291 388T300 395T315 397Q319 397 322 397T329 396T334
394T340 391L334 352L326 290L387 291Q388 289 389 286T391 281T392 275T393 269ZM268 237L165 238L153 151H256L268 237Z" />
<glyph unicode="$" glyph-name="dollar" horiz-adv-x="398" d="M364 119Q364 99 357 80T334 44T293 16T233 0V-84Q233 -90 231 -94T225 -101T216 -105T203 -107Q199 -107 195 -107T187 -106T180 -104T173 -102L172 -3Q136 -2 110 3T67 16T42 35T34 59Q34 64 35
68T40 76T49 83T63 89Q73 79 87 71T118 55T153 45T191 41Q214 41 234 44T270 54T295 74T304 104Q304 116 300 125T287 140T266 150T238 157Q212 162 196 165T165 172T138 179T117 186Q98 193 85 201T63 220T52 244T48 275Q48 296 56 316T82 353T124 381T182 398L181
468Q181 475 183 481T189 491T201 498T217 501Q222 501 226 501T235 499T242 497T247 494L246 468V402Q275 401 297 396T333 382T353 363T360 341Q360 335 359 331T354 323T346 316T335 311Q324 321 310 329T281 343T251 352T220 355Q195 355 174 350T138 336T115
313T107 284Q107 272 110 264T120 248T140 236T174 225Q185 222 196 220T218 215T248 208T278 202Q301 197 317 190T344 172T359 148T364 119Z" />
<glyph unicode="%" glyph-name="percent" horiz-adv-x="692" d="M545 410L213 -25Q210 -29 207 -32T199 -38T191 -42T182 -44Q177 -44 172 -43T162 -39T153 -33T146 -24L468 402Q474 410 479 415T490 424T500 430T511 432Q516 432 521 431T531 427T539 420T545
410ZM276 286Q276 258 268 236T242 197T202 171T149 162Q124 162 104 169T70 189T48 223T40 271Q40 299 49 323T74 364T114 391T166 401Q195 401 216 394T250 371T270 335T276 286ZM225 282Q225 299 222 312T211 336T192 352T164 358Q147 358 134 353T112 338T98
313T93 278Q93 259 97 245T109 222T128 209T156 204Q171 204 183 209T205 225T220 249T225 282ZM652 118Q652 90 644 68T618 29T578 3T525 -6Q500 -6 480 1T446 21T424 55T416 103Q416 131 425 155T450 196T490 223T542 233Q571 233 592 226T626 203T646 167T652
118ZM601 114Q601 131 598 144T587 168T568 184T540 190Q523 190 510 185T487 170T473 145T468 110Q468 91 472 77T484 54T504 41T532 36Q547 36 559 41T581 56T596 81T601 114Z" />
<glyph unicode="&amp;" glyph-name="ampersand" horiz-adv-x="558" d="M574 30Q574 20 569 13T554 1T527 -7T487 -10Q467 -10 455 -9T432 -2T410 14T382 43Q363 30 346 21T308 6T264 -3T210 -6Q173 -6 144 1T94 23T61 65T49 128Q49 153 56 176T80 220T120 254T177
275Q160 293 149 308T130 338T118 367T114 397Q114 426 124 449T155 488T205 514T271 523Q299 523 317 521T345 513T360 500T365 481Q365 477 364 474T362 469T359 464T355 459Q344 463 334 465T314 470T292 473T268 474Q243 474 225 469T195 455T178 433T172 403Q172
390 174 380T181 359T197 335T227 300L392 120Q403 135 410 150T423 180T430 212T432 246Q432 250 432 256T430 269T428 283T425 296Q427 299 429 301T435 305T442 307T450 308Q460 308 467 304T478 293T485 275T487 249Q487 228 483 207T471 164T451 122T424 84Q437
70 446 62T464 50T480 43T499 41Q505 41 513 41T529 43T545 47T561 52Q564 50 566 48T570 42T573 36T574 30ZM354 77L201 245Q181 240 164 231T135 207T117 176T110 138Q110 110 118 91T142 61T179 44T229 39Q248 39 265 41T298 49T328 61T354 77Z" />
<glyph unicode="&apos;" glyph-name="quotesingle" horiz-adv-x="231" d="M149 534L148 507L146 382Q146 376 144 372T138 364T129 360T116 358Q112 358 108 358T100 359T92 361T85 363L82 507Q82 514 84 520T90 530T102 537T119 540Q124 540 128 540T136 539T143
537T149 534Z" />
<glyph unicode="(" glyph-name="parenleft" horiz-adv-x="286" d="M255 562Q217 544 191 514T148 441T125 342T118 213Q118 140 124 84T146 -15T188 -88T253 -136Q253 -143 251 -148T244 -158T233 -164T216 -166Q185 -166 157 -146T105 -81T69 37T55 212Q55 311
70 385T110 505T164 574T222 597Q230 597 236 595T247 588T253 577T255 562Z" />
<glyph unicode=")" glyph-name="parenright" horiz-adv-x="286" d="M231 218Q231 119 216 46T176 -75T122 -144T64 -166Q56 -166 50 -164T39 -158T33 -147T31 -132Q69 -114 95 -84T138 -11T161 88T168 217Q168 290 162 346T140 445T98 518T33 566Q33 573 35 579T42
589T53 595T70 597Q101 597 129 577T181 511T217 393T231 218Z" />
<glyph unicode="*" glyph-name="asterisk" horiz-adv-x="472" d="M444 481Q446 475 447 471T448 462T447 455T443 448L268 409L382 275Q382 271 381 268T377 261T371 255T364 249Q359 245 355 243T346 240T339 238T331 239L237 384L138 241Q135 240 131 240T123
242T115 245T106 250Q101 253 98 256T92 263T89 269T87 276L204 407L29 451Q27 454 26 457T25 465T25 473T28 482Q30 488 32 492T36 499T42 504T49 508L215 443L206 614Q208 617 211 619T219 622T227 624T237 625Q243 625 248 625T256 623T263 620T269 615L256
444L424 506Q427 505 430 503T435 497T440 490T444 481Z" />
<glyph unicode="+" glyph-name="plus" horiz-adv-x="430" d="M380 205Q380 197 378 192T370 183T358 178T342 176L240 177L241 92Q241 82 239 75T234 62T224 53T209 50Q205 50 202 50T195 52T189 55T184 58L185 92V177L57 178Q55 180 54 183T52 189T51 195T50
202Q50 207 52 211T57 219T66 224T78 226H185V332Q185 339 187 345T192 355T201 361T212 363Q216 363 219 363T226 361T232 359T238 355L239 226H342L373 227Q374 226 375 224T378 218T379 212T380 205Z" />
<glyph unicode="," glyph-name="comma" horiz-adv-x="240" d="M199 -9Q199 -31 190 -52T167 -89T135 -114T101 -123Q96 -123 92 -122T85 -117T81 -110T79 -101V-97Q93 -91 104 -82T124 -62T136 -41T140 -21Q140 -10 135 -1T121 14T98 24T67 29Q66 31 65 33T63
38T62 43T62 50Q62 57 64 62T72 72T85 78T104 81Q127 81 144 75T174 56T193 27T199 -9Z" />
<glyph unicode="-" glyph-name="hyphen" horiz-adv-x="281" d="M256 216Q256 208 254 203T246 194T234 189T219 188L32 190Q30 192 29 195T27 201T26 207T25 213Q25 218 27 222T32 230T41 235T52 237H219L249 238Q251 236 252 234T254 229T255 223T256 216Z" />
<glyph unicode="." glyph-name="period" horiz-adv-x="227" d="M168 43Q168 34 166 27T158 13T143 3T119 -1Q107 -1 98 1T83 9T75 21T72 39Q72 48 75 56T86 70T102 79T124 83Q136 83 144 80T158 71T166 58T168 43Z" />
<glyph unicode="/" glyph-name="slash" horiz-adv-x="314" d="M326 555L312 524L96 -1Q95 -5 93 -8T87 -13T80 -16T71 -17Q67 -17 63 -16T54 -13T45 -8T38 -1L260 545Q263 551 266 556T274 564T283 569T293 571Q298 571 302 570T311 567T319 562T326 555Z" />
<glyph unicode="0" glyph-name="zero" horiz-adv-x="472" d="M438 205Q438 155 424 116T382 49T314 7T222 -7Q179 -7 145 5T87 42T51 100T38 177Q38 227 52 268T94 339T162 385T253 401Q301 401 336 388T393 350T427 289T438 205ZM378 198Q378 231 371 259T349
308T309 341T249 353Q213 353 186 343T139 312T110 261T100 190Q100 151 108 123T133 76T175 48T234 39Q266 39 292 49T338 80T367 131T378 198Z" />
<glyph unicode="1" glyph-name="one" horiz-adv-x="354" d="M334 35Q334 25 331 18T319 7T295 2T255 0L50 1Q49 2 48 4T46 8T45 13T44 18Q44 28 48 34T65 45T100 51T162 53V339L68 278Q63 279 59 281T51 286T46 294T44 306Q44 312 47 318T58 332T78 348T108 368Q121
376 132 381T152 391T171 396T191 398Q202 398 208 397T218 394T223 388T225 380V54H329Q330 52 331 50T332 45T333 40T334 35Z" />
<glyph unicode="2" glyph-name="two" horiz-adv-x="411" d="M400 31Q400 24 398 18T391 8T380 1T364 -2Q276 -1 225 -1T131 -1T73 0H44Q41 2 39 5T36 13T34 21T33 28Q33 34 34 37T36 43T40 48T47 53Q220 158 248 180T291 224T305 273Q305 292 300 306T282 330T252
345T207 350Q193 350 178 347T146 337T114 322T85 302Q78 303 73 305T65 310T61 319T59 331Q59 343 71 356T105 380T158 397T225 404Q265 404 293 395T338 370T363 332T371 284Q371 251 357 224T314 172T243 119T125 46Q129 47 134 47T145 48T162 48T179 49H394Q396
47 396 45T398 41T399 37T400 31Z" />
<glyph unicode="3" glyph-name="three" horiz-adv-x="373" d="M344 54Q344 20 331 -8T293 -58T231 -92T148 -104Q118 -104 95 -101T56 -91T33 -74T25 -52Q25 -49 26 -46T28 -39T32 -32T37 -27Q49 -33 63 -37T92 -45T122 -51T152 -53Q185 -53 210 -47T251 -27T275
4T283 48Q283 68 275 83T252 109T215 125T164 131Q162 131 159 131T150 131T141 130T135 129Q132 132 130 135T127 141T125 149T124 159Q124 164 125 168T127 174T131 178T135 180Q172 184 197 193T237 215T259 244T266 280Q266 296 261 309T245 331T217 346T174
351Q160 351 146 348T117 339T90 324T67 304Q61 305 56 307T48 312T42 320T40 331Q40 343 50 355T79 379T126 397T188 404Q224 404 250 395T294 371T319 334T328 289Q328 266 322 246T301 208T262 179T202 163Q242 163 269 155T313 133T337 99T344 54Z" />
<glyph unicode="4" glyph-name="four" horiz-adv-x="419" d="M405 28Q405 21 403 16T395 7T380 2T358 0H330V-76Q330 -84 328 -89T322 -98T312 -102T297 -103Q293 -103 289 -103T282 -102T275 -100T269 -98L270 0H28Q26 3 24 6T21 13T20 20T19 27Q19 30 19 33T21
40T25 49T32 60L264 391Q266 392 269 393T275 394T283 395T291 396Q303 396 311 394T323 385T329 370T331 347Q331 341 331 298T331 200T330 47H400Q401 45 402 43T404 38T405 33T405 28ZM271 47V322L80 47H271Z" />
<glyph unicode="5" glyph-name="five" horiz-adv-x="383" d="M354 372Q354 364 352 358T345 346T333 339T315 336Q307 336 275 336T204 336T136 337T98 338V191Q100 191 106 191T122 192T137 193T144 193Q196 193 234 184T298 158T335 116T347 57Q347 23 334 -6T296
-57T234 -91T151 -104Q121 -104 98 -101T59 -91T36 -74T28 -52Q28 -49 29 -46T31 -39T35 -32T40 -27Q52 -33 66 -37T95 -45T125 -51T155 -53Q188 -53 213 -47T254 -27T278 4T286 48Q286 73 277 91T250 119T203 135T135 140Q125 140 114 140T94 138T59 134Q56 137
54 142T51 152T49 165T48 180Q48 191 48 211T48 276T50 394H292L345 396Q347 393 349 391T352 385T353 378T354 372Z" />
<glyph unicode="6" glyph-name="six" horiz-adv-x="423" d="M395 457Q395 454 394 451T392 444T388 437T383 432Q371 438 357 442T329 450T298 456T265 458Q219 458 189 444T139 401T111 331T98 230Q105 252 117 268T148 295T188 311T239 316Q275 316 302 305T348
273T376 228T385 173Q385 130 372 97T335 40T278 6T205 -6Q167 -6 137 5T84 41T51 103T39 196Q39 269 53 327T96 425T168 487T269 509Q301 509 324 506T363 496T387 479T395 457ZM326 156Q326 183 320 203T300 238T267 260T219 268Q202 268 186 265T155 254T125
235T98 210Q98 169 104 138T123 85T159 52T213 40Q236 40 256 48T292 71T317 107T326 156Z" />
<glyph unicode="7" glyph-name="seven" horiz-adv-x="385" d="M365 368Q365 364 365 361T363 354T360 346T355 337Q346 321 318 263T255 130T192 -7T155 -92Q153 -97 151 -100T144 -105T135 -108T123 -109Q117 -109 112 -108T102 -105T94 -99T89 -91Q97 -72 128
-6T197 137T262 272T295 338L40 337Q37 340 35 343T32 349T30 356T29 365Q29 371 32 376T40 386T54 393T73 395L356 393Q358 391 360 389T363 383T364 376T365 368Z" />
<glyph unicode="8" glyph-name="eight" horiz-adv-x="434" d="M390 140Q390 106 378 79T341 33T283 4T204 -6Q165 -6 135 2T85 26T55 66T45 123Q45 147 53 169T76 210T115 241T167 262Q144 272 128 284T102 310T88 341T83 379Q83 408 93 431T122 472T171 499T238
509Q271 509 296 501T337 477T361 440T369 394Q369 369 362 349T341 315T308 290T266 275Q299 263 323 249T361 217T383 181T390 140ZM316 383Q316 401 311 415T296 441T270 459T230 465Q208 465 191 459T162 442T144 417T138 384Q138 365 144 351T163 327T191
308T232 289Q255 297 271 306T297 328T311 353T316 383ZM332 130Q332 150 324 166T301 195T263 218T207 241Q183 233 165 223T132 199T111 169T104 133Q104 107 111 89T133 61T168 45T216 40Q241 40 262 46T299 63T323 92T332 130Z" />
<glyph unicode="9" glyph-name="nine" horiz-adv-x="423" d="M325 185Q325 226 319 257T300 310T264 343T210 355Q187 355 167 347T131 324T106 288T97 239Q97 212 103 192T123 157T156 135T204 127Q221 127 237 130T268 141T298 160T325 185ZM384 199Q384 126
370 70T327 -25T255 -84T153 -104Q122 -104 99 -101T60 -91T36 -74T28 -52Q28 -49 29 -46T31 -39T35 -32T40 -27Q52 -33 66 -37T95 -45T126 -51T157 -53Q203 -53 234 -40T283 -1T311 66T325 165Q318 143 306 127T275 100T235 84T184 79Q148 79 121 90T75 122T47
167T38 222Q38 265 51 298T88 355T145 389T218 401Q256 401 286 390T339 354T372 292T384 199Z" />
<glyph unicode=":" glyph-name="colon" horiz-adv-x="227" d="M168 287Q168 278 166 271T158 257T143 247T119 243Q107 243 98 245T83 253T75 265T72 283Q72 292 75 300T86 314T102 323T124 327Q136 327 144 324T158 315T166 302T168 287ZM168 85Q168 76 166 69T158
55T143 46T119 42Q107 42 98 44T83 52T75 64T72 82Q72 91 75 99T86 113T102 122T124 126Q136 126 144 123T158 114T166 101T168 85Z" />
<glyph unicode=";" glyph-name="semicolon" horiz-adv-x="240" d="M168 287Q168 278 166 271T158 257T143 247T119 243Q107 243 98 245T83 253T75 265T72 283Q72 292 75 300T86 314T102 323T124 327Q136 327 144 324T158 315T166 302T168 287ZM199 -9Q199 -31
190 -52T167 -89T135 -114T101 -123Q96 -123 92 -122T85 -117T81 -110T79 -101V-97Q93 -91 104 -82T124 -62T136 -41T140 -21Q140 -10 135 -1T121 14T98 24T67 29Q66 31 65 33T63 38T62 43T62 50Q62 57 64 62T72 72T85 78T104 81Q127 81 144 75T174 56T193 27T199
-9Z" />
<glyph unicode="&lt;" glyph-name="less" horiz-adv-x="366" d="M316 373Q316 367 316 364T314 356T309 348T299 339L115 195L296 60Q302 56 305 51T311 42T313 34T314 26Q314 20 313 15T308 7T300 1T288 -3L63 155Q58 158 55 162T49 172T46 182T45 192Q45 197
46 201T49 210T54 219T61 226L293 398Q299 397 303 395T311 390T315 383T316 373Z" />
<glyph unicode="=" glyph-name="equal" horiz-adv-x="430" d="M380 272Q380 264 378 259T370 250T358 245T342 243L57 245Q55 248 54 250T52 256T51 262T50 269Q50 275 52 279T57 287T66 292T78 294H342L373 295Q375 293 376 291T378 285T379 279T380 272ZM380
115Q380 107 378 102T370 93T358 88T342 86L57 89Q55 91 54 94T52 100T51 106T50 112Q50 118 52 122T57 130T66 135T78 137H342L373 138Q375 136 376 134T378 128T379 122T380 115Z" />
<glyph unicode="&gt;" glyph-name="greater" horiz-adv-x="366" d="M321 204Q321 199 320 195T317 186T312 177T305 170L73 -2Q67 -1 63 1T55 6T51 13T50 23Q50 29 50 32T52 40T57 48T67 57L251 201L70 336Q64 340 61 345T55 354T53 362T52 370Q52 376 53 381T58
389T66 395T78 399L303 241Q308 238 311 234T317 224T320 214T321 204Z" />
<glyph unicode="?" glyph-name="question" horiz-adv-x="412" d="M375 407Q375 386 369 370T350 340T318 316T270 297Q231 285 212 277T184 256T173 225T170 165Q168 164 166 163T162 162T157 161T152 161Q141 161 133 164T120 174T113 191T110 216Q110 244 121
263T150 294T184 311T243 331Q261 337 273 342T294 354T310 373T316 401Q316 428 299 448T255 480T198 499T143 505Q135 505 128 505T112 504T97 502T83 500Q80 502 78 504T74 510T71 516T70 524Q70 533 74 540T88 552T113 559T151 562Q192 562 232 552T304 522T356
473T375 407ZM209 43Q209 34 207 27T199 13T184 3T160 -1Q148 -1 139 1T125 9T117 21T114 39Q114 48 117 56T128 70T144 79T165 83Q177 83 185 80T199 71T207 58T209 43Z" />
<glyph unicode="@" glyph-name="at" horiz-adv-x="824" d="M57 133Q57 221 84 297T163 429T292 516T463 547Q546 547 605 527T700 470T752 385T768 281Q768 218 750 166T701 75T628 17T542 -3Q527 -3 517 -1T499 7T489 21T485 43Q485 47 485 50T486 58T488 66T490
76Q482 58 470 44T441 19T402 2T355 -4Q328 -4 307 4T270 29T246 73T237 136Q237 197 252 244T295 321T357 367T430 382Q450 382 465 380T491 372T508 359T517 341Q519 352 521 359T527 372T536 379T551 381Q556 381 560 381T569 379T577 375T584 371L556 156Q554
143 552 125T549 97T547 81T546 68Q546 61 547 58T550 52T557 50T571 49Q595 49 619 64T664 109T697 180T710 270Q710 325 694 367T646 439T564 484T449 499Q376 499 315 472T211 397T144 286T120 151Q120 90 135 44T178 -34T249 -80T346 -96Q363 -96 380 -95T414
-90T446 -82T476 -72Q479 -74 481 -76T486 -81T489 -88T490 -97Q490 -111 476 -121T439 -138T387 -148T331 -151Q277 -151 228 -136T141 -86T80 2T57 133ZM514 319Q506 323 498 326T480 331T460 334T438 335Q406 335 381 323T338 287T312 230T303 155Q303 125 307
104T321 70T344 50T380 43Q392 43 406 47T435 59T461 78T483 103L514 319Z" />
<glyph unicode="A" glyph-name="A" horiz-adv-x="519" d="M521 27Q521 19 518 14T508 5T488 -1T454 -3Q446 -3 440 -2T429 2T421 9T414 20L357 146H128L68 1Q61 0 58 0T52 -1T46 -2Q38 -2 32 -1T23 3T17 10T15 22Q15 26 15 29T17 37T20 45T25 55L213 492Q217 500
221 505T231 513T242 517T256 518Q259 518 261 518T265 518T269 517T273 516L475 48H516Q517 46 518 44T519 39T520 33T521 27ZM342 188L243 429L141 188H342Z" />
<glyph unicode="B" glyph-name="B" horiz-adv-x="481" d="M443 154Q443 115 430 86T388 38T317 9T214 -1Q175 -1 151 2T112 14T91 37T84 72V227Q84 253 84 282T85 331T86 397T87 466L22 469Q21 471 20 473T19 477T18 481T17 485Q17 493 20 498T31 508T54 514T95
516H233Q281 516 316 508T375 482T409 440T421 380Q421 361 415 343T397 310T370 284T338 268Q362 263 381 253T414 228T435 194T443 154ZM362 369Q362 394 355 412T331 442T289 461T227 467Q216 467 209 467T192 467T172 467T150 466L149 287Q161 287 174 287T203
286T233 285T263 285Q283 285 301 290T333 306T354 333T362 369ZM380 147Q380 169 373 186T348 215T301 235T228 242Q214 242 205 242T185 242T166 242T149 241V76Q149 65 152 59T163 50T187 46T231 44Q267 44 295 51T342 71T370 103T380 147Z" />
<glyph unicode="C" glyph-name="C" horiz-adv-x="483" d="M464 65Q464 51 451 39T413 16T351 1T267 -5Q209 -5 167 9T97 53T57 127T43 231Q43 294 59 346T108 437T195 497T321 519Q357 519 382 516T421 506T442 491T448 472Q448 468 447 464T444 456T438 449T431
443Q422 448 409 452T382 460T351 464T318 466Q262 466 222 451T158 406T123 337T112 244Q112 191 121 154T150 92T204 56T289 44Q309 44 329 47T369 56T407 71T444 91Q449 90 452 87T458 81T462 73T464 65Z" />
<glyph unicode="D" glyph-name="D" horiz-adv-x="570" d="M526 284Q526 210 506 156T446 67T350 16T222 -1Q178 -1 152 2T111 14T90 38T84 77V227Q84 253 84 282T85 331T86 397T87 466L22 469Q21 471 20 473T19 477T18 481T17 485Q17 493 20 498T31 508T55 514T96
516H252Q327 516 380 501T465 455T511 382T526 284ZM459 276Q459 326 445 362T402 421T327 456T218 467Q208 467 202 467T189 467T173 467T152 466V81Q152 69 154 63T164 54T187 49T230 47Q295 47 339 62T410 106T447 177T459 276Z" />
<glyph unicode="E" glyph-name="E" horiz-adv-x="447" d="M431 495Q431 487 428 481T420 472T407 467T388 465L152 466V294L366 295Q367 293 368 291T370 285T371 279T371 274Q371 267 369 262T363 253T351 247T334 245L152 246V73Q152 66 153 62T158 55T166 52T180
51H418Q419 49 420 47T422 43T423 37T424 30Q424 19 418 14T394 5T343 0T250 -1Q190 -1 160 0T114 4T94 14T87 33Q86 39 86 52T85 89T84 146T84 229Q84 255 84 283T85 331T86 396T87 466L22 469Q21 471 20 473T19 477T18 481T17 485Q17 493 20 498T31 508T54 514T95
516L386 517L423 518Q425 516 426 514T429 508T430 502T431 495Z" />
<glyph unicode="F" glyph-name="F" horiz-adv-x="419" d="M413 495Q413 487 410 481T402 472T389 467T370 465L152 466V285L348 286Q349 284 350 281T351 275T352 270T353 264Q353 257 351 252T345 244T333 238T316 236H152V3Q150 2 147 1T139 -1T129 -2T118 -3Q109
-3 103 -2T93 1T87 7T85 17Q85 19 85 21T84 27T84 32T84 40V227Q84 253 84 282T85 331T86 397T87 466L22 469Q21 471 20 473T19 477T18 481T17 485Q17 493 20 498T31 508T54 514T95 516L367 517L405 518Q407 516 408 514T411 508T412 502T413 495Z" />
<glyph unicode="G" glyph-name="G" horiz-adv-x="532" d="M470 195V52Q470 42 457 32T418 14T354 0T267 -5Q209 -5 167 9T97 53T57 127T43 231Q43 294 59 346T108 437T195 497T321 519Q363 519 391 516T435 505T459 489T466 468Q466 464 465 460T462 453T456 446T449
440Q440 445 425 449T391 458T353 464T318 466Q262 466 222 451T158 406T123 337T112 244Q112 189 122 151T152 90T206 56T289 45Q303 45 317 46T347 49T376 55T403 63L404 165L304 169Q303 171 302 173T301 177T300 181T299 185Q299 193 302 198T316 208T346 215T399
217Q421 217 435 216T456 212T467 205T470 195Z" />
<glyph unicode="H" glyph-name="H" horiz-adv-x="574" d="M559 27Q559 18 556 13T544 4T521 -1T483 -3Q464 -3 454 -1T438 8T430 24T428 53Q428 81 428 103T427 148T426 195T426 241H152L151 4Q149 3 146 2T138 0T130 -1T123 -1Q115 -1 109 0T99 3T92 8T88 16Q87
20 86 36T85 78T84 142T84 229Q84 257 84 286T84 346T85 407T87 466L22 469Q21 471 20 473T19 477T18 481T17 485Q17 493 20 498T32 508T57 515T98 518Q114 518 124 517T141 513T149 506T152 494V284L426 285Q426 346 426 379T426 440T428 483T430 503Q431 508
434 511T441 516T451 519T465 520Q468 520 471 520T479 520T487 518T493 516L494 46L553 47Q554 45 555 43T557 39T558 33T559 27Z" />
<glyph unicode="I" glyph-name="I" horiz-adv-x="327" d="M293 495Q293 489 292 484T287 474T278 468T267 466L192 467L191 47L283 49Q284 46 285 43T287 37T288 30T289 24Q289 18 287 14T281 6T270 1T255 -1Q252 -1 224 -1T136 -1T61 0T43 0Q41 1 40 3T37 8T36
14T35 20Q35 27 37 32T44 40T52 44T62 46Q68 46 77 46T97 47T124 47V236Q124 256 124 287T124 352T125 417T126 468L39 469Q38 471 37 473T36 477T35 481T34 485Q34 492 36 498T44 508T59 514T81 517L254 516L287 517Q289 514 290 512T291 507T292 502T293 495Z"
/>
<glyph unicode="J" glyph-name="J" horiz-adv-x="250" d="M176 492L174 70Q174 16 165 -20T139 -78T95 -109T31 -119Q19 -119 10 -117T-5 -112T-13 -103T-16 -90Q-16 -87 -16 -85T-15 -80T-13 -75T-9 -70Q13 -70 31 -69T63 -64T84 -56T96 -46Q99 -42 101 -33T104
-6T107 41T108 113Q108 137 108 197T108 300T108 388T109 468H22Q21 470 20 472T19 476T18 481T18 486Q18 495 22 501T36 511T65 517T115 519Q133 519 145 517T164 512T173 504T176 492Z" />
<glyph unicode="K" glyph-name="K" horiz-adv-x="501" d="M488 27Q488 19 486 14T477 5T457 -1T424 -3Q415 -3 409 -2T399 0T393 5T386 12Q382 16 355 48T291 124T228 201T195 241L151 202V4Q149 3 146 2T138 0T130 -1T123 -1Q115 -1 109 0T99 3T92 8T88 16Q87
20 86 36T85 78T84 142T84 229Q84 257 84 286T84 346T85 407T87 466L22 469Q21 471 20 473T19 477T18 481T17 485Q17 493 20 499T31 509T54 515T95 518Q112 518 123 517T140 512T149 505T152 494V265L395 500Q401 506 405 509T413 515T421 517T430 518Q437 518
442 517T450 513T455 507T457 498Q457 496 457 494T457 490T456 486T454 481L244 282L446 47L483 48Q484 46 485 44T487 39T488 33T488 27Z" />
<glyph unicode="L" glyph-name="L" horiz-adv-x="398" d="M387 30Q387 19 379 13T353 4T305 0T222 -1Q176 -1 153 0T117 3T97 11T88 28Q87 32 86 46T85 84T84 144T84 229Q84 257 84 286T84 346T85 407T87 466L22 469Q21 471 20 473T19 477T18 481T17 485Q17 493
20 499T31 509T54 515T95 518Q112 518 123 517T140 512T149 505T152 494V73Q152 66 153 62T158 55T166 52T180 51H381Q382 49 383 47T385 43T386 37T387 30Z" />
<glyph unicode="M" glyph-name="M" horiz-adv-x="702" d="M639 506L637 461V6Q634 4 630 3T622 1T613 0T603 -1Q594 -1 588 0T578 5T572 14T570 26V431L378 49Q375 47 372 46T365 44T359 43T352 42Q344 42 338 43T327 46T318 52T311 63L137 431V4Q134 3 132 2T126
0T120 -1T114 -1Q106 -1 101 0T92 3T86 8T82 16Q81 20 80 36T79 78T78 142T78 229Q78 257 78 286T78 346T79 407T81 466L16 469Q15 471 14 473T13 477T12 481T11 485Q11 493 14 499T25 509T48 515T89 518Q107 518 121 515T145 507T163 493T177 473L356 113L548
486Q553 495 557 501T568 510T582 515T601 517Q606 517 611 517T622 515T631 511T639 506Z" />
<glyph unicode="N" glyph-name="N" horiz-adv-x="571" d="M508 10Q506 8 503 6T494 3T481 0T464 -1Q456 -1 450 0T440 3T432 8T425 16L138 423Q138 321 138 256T138 121T137 4Q135 3 132 2T126 0T120 -1T114 -1Q106 -1 101 0T92 3T86 8T82 16Q81 20 80 36T79 78T78
142T78 229Q78 257 78 286T78 346T79 407T81 466L16 469Q15 471 14 473T13 477T12 481T11 485Q11 493 14 499T25 509T48 515T89 518Q104 518 115 517T135 512T150 505T160 494L450 93Q450 234 450 312T451 449T451 513Q453 515 455 516T461 517T467 518T475 519Q483
519 489 518T499 513T505 506T507 495L508 10Z" />
<glyph unicode="O" glyph-name="O" horiz-adv-x="583" d="M541 274Q541 209 525 158T475 69T391 13T275 -7Q220 -7 177 7T104 49T59 122T43 227Q43 289 60 342T110 435T194 497T309 519Q366 519 410 502T483 452T526 374T541 274ZM473 258Q473 307 465 345T438
411T384 454T299 470Q250 470 214 452T155 401T122 328T111 240Q111 188 121 151T152 89T207 52T289 39Q334 39 368 53T426 96T461 165T473 258Z" />
<glyph unicode="P" glyph-name="P" horiz-adv-x="444" d="M361 367Q361 391 355 409T333 440T292 460T227 467Q217 467 210 467T193 467T174 467T152 466V255Q182 252 190 252T207 251T230 250Q262 250 286 258T327 282T352 319T361 367ZM424 375Q424 340 412
310T374 256T313 220T229 207Q215 207 204 207T185 207T169 209T152 211V3Q150 2 147 1T139 -1T129 -2T118 -3Q109 -3 103 -2T93 1T87 7T85 17Q85 19 85 21T84 27T84 32T84 40V227Q84 253 84 282T85 331T86 397T87 466L23 469Q22 471 21 473T20 477T19 481T18 485Q18
493 21 498T32 508T55 514T96 516H234Q286 516 322 506T381 478T414 433T424 375Z" />
<glyph unicode="Q" glyph-name="Q" horiz-adv-x="582" d="M555 -101Q555 -112 549 -121T531 -137T503 -146T467 -150Q441 -150 424 -144T391 -121T361 -81T317 -4Q312 -5 307 -5T297 -6T287 -7T275 -7Q220 -7 177 7T104 49T59 122T43 227Q43 289 60 342T111 435T195
497T309 519Q366 519 410 502T483 452T526 374T541 274Q541 222 531 179T501 101T449 42T375 6Q399 -27 413 -46T438 -74T457 -86T475 -89Q483 -89 492 -89T511 -87T530 -84T546 -80Q548 -82 550 -84T553 -88T554 -94T555 -101ZM473 258Q473 307 465 345T438 411T384
454T299 470Q250 470 214 452T155 401T122 328T111 240Q111 188 121 151T152 89T207 52T289 39Q334 39 368 53T426 96T461 165T473 258Z" />
<glyph unicode="R" glyph-name="R" horiz-adv-x="495" d="M479 25Q479 18 476 13T464 3T442 -3T408 -5Q400 -5 394 -4T384 0T376 7T369 18L254 211H239Q224 211 212 211T190 211T170 213T152 215V3Q150 2 147 1T139 -1T129 -2T118 -3Q109 -3 103 -2T93 1T87 7T85
17Q85 19 85 21T84 27T84 32T84 40V227Q84 253 84 282T85 331T86 397T87 466L23 469Q22 471 21 473T20 477T19 481T18 485Q18 493 21 498T32 508T55 514T96 516H243Q295 516 331 506T389 478T420 433T430 375Q430 348 423 325T402 282T367 248T317 224L432 46L473
47Q475 44 476 42T477 37T478 31T479 25ZM366 367Q366 391 361 409T341 440T301 460T237 467Q226 467 217 467T198 467T175 467T152 466V260Q163 258 173 258T193 256T214 255T239 255Q271 255 295 262T334 285T358 320T366 367Z" />
<glyph unicode="S" glyph-name="S" horiz-adv-x="447" d="M412 148Q412 113 400 85T362 38T298 8T208 -3Q167 -3 134 2T78 18T43 40T31 68Q31 74 33 79T38 90T47 98T60 104Q75 90 92 79T129 61T170 49T212 45Q248 45 274 51T316 68T340 94T348 130Q348 149 343
162T325 185T286 206T219 226Q175 237 146 247T98 273T68 311T58 365Q58 397 69 425T105 474T165 508T250 521Q284 521 311 516T357 503T386 483T396 460Q396 455 394 451T389 442T382 435T371 430Q359 440 344 447T311 459T276 466T242 469Q210 469 187 463T148
444T126 415T118 377Q118 356 126 342T152 317T194 298T257 279Q304 267 334 254T382 224T405 190T412 148Z" />
<glyph unicode="T" glyph-name="T" horiz-adv-x="437" d="M425 500Q425 489 423 483T414 472T394 466T360 464Q344 464 329 464T294 464T267 465T251 465V3Q249 2 246 1T238 -1T228 -2T218 -3Q209 -3 203 -2T193 1T187 7T184 17Q184 19 184 21T183 27T183 32T183
40V227Q183 257 183 283T183 336T184 390T186 465L19 466Q17 468 16 470T14 475T13 481T12 487Q12 494 14 499T24 509T45 515T80 517H352L421 518Q422 517 422 515T423 509T424 504T425 500Z" />
<glyph unicode="U" glyph-name="U" horiz-adv-x="559" d="M500 350Q500 331 500 312T500 272T499 233T498 193Q497 146 484 110T445 47T379 8T283 -6Q233 -6 197 1T135 27T96 79T82 165Q82 196 82 234T83 311T85 377T87 466L23 469Q22 471 21 473T20 477T19 481T18
485Q18 493 21 498T32 508T57 515T98 518Q115 518 125 517T142 513T150 506T152 496V388Q152 367 152 343T151 281T150 220T150 175Q150 138 157 114T181 74T224 52T293 45Q325 45 351 53T396 76T425 116T437 171Q438 185 438 204T439 244T439 287T439 339Q439
367 439 387T439 431T438 477T436 517Q439 518 442 519T448 522T456 523T466 524Q480 524 486 518T496 494T499 449T500 350Z" />
<glyph unicode="V" glyph-name="V" horiz-adv-x="513" d="M491 491Q491 488 491 484T489 475T485 465T481 454L284 3Q282 2 280 1T274 0T267 -1T259 -2Q253 -2 249 -1T243 1T238 5T235 11L40 468L2 469Q1 471 0 473T-2 477T-3 482T-3 487Q-3 494 0 500T12 510T33
516T65 518Q74 518 79 517T89 514T95 509T101 498L268 92L443 517Q446 518 448 518T453 519T458 519T466 519Q472 519 476 517T484 512T489 503T491 491Z" />
<glyph unicode="W" glyph-name="W" horiz-adv-x="764" d="M743 491Q743 488 742 483T740 472T737 460T733 449L568 3Q565 2 562 1T556 0T548 -1T538 -2Q532 -2 528 -1T521 2T516 9T511 19L393 352L259 3Q257 2 254 1T248 0T240 -1T231 -2Q227 -2 224 -1T218 2T213
7T209 14L50 468L12 469Q11 471 10 473T8 477T7 482T7 487Q7 494 10 500T22 510T43 516T75 518Q84 518 89 517T98 514T104 508T108 498L243 93L366 425L339 498Q340 503 343 507T351 514T360 518T370 520Q379 520 385 519T395 516T403 510T410 499L549 92L694 517Q697
518 699 518T703 519T708 519T714 519Q722 519 728 517T737 512T741 503T743 491Z" />
<glyph unicode="X" glyph-name="X" horiz-adv-x="513" d="M499 29Q499 21 497 15T487 5T468 -1T435 -3Q422 -3 414 -3T401 -1T393 1T387 5Q386 6 384 8T378 15T372 25T363 38L249 212L88 0Q86 0 84 0T80 -1T74 -2T68 -2Q62 -2 57 -1T49 4T43 11T41 22Q41 26 42
29T44 36T48 43T55 53Q69 71 88 95T128 146T172 202T215 256L76 467L16 469Q15 471 14 473T12 477T11 482T11 487Q11 494 14 500T26 510T47 516T79 518Q96 518 105 517T121 513T131 505T144 487L263 303L424 516Q429 517 429 517T431 517T435 518T441 518Q448 518
454 517T463 512T469 506T471 497Q471 494 470 490T467 481T463 472T457 463Q440 441 422 418T383 368T340 313T298 260L440 48L493 49Q494 47 495 45T497 39T498 34T499 29Z" />
<glyph unicode="Y" glyph-name="Y" horiz-adv-x="468" d="M463 497Q463 494 462 490T460 481T456 472T450 463Q437 446 416 420T371 362T322 300T276 243V4Q274 3 271 2T263 0T255 -1T248 -1Q240 -1 234 0T224 3T217 8T213 16Q212 21 212 28T211 49T210 82T210
143Q210 153 210 163T210 188T211 211T211 228L40 468L2 469Q1 471 0 473T-2 477T-3 482T-3 487Q-3 494 0 500T12 510T33 516T65 518Q71 518 75 517T84 513T92 505T102 491L248 284L420 516Q425 517 425 517T427 517T431 518T437 518Q443 518 448 517T456 512T461
506T463 497Z" />
<glyph unicode="Z" glyph-name="Z" horiz-adv-x="456" d="M437 487Q437 480 436 473T431 458T423 442T411 426L85 51L430 52Q431 50 432 48T433 43T434 39T434 34Q434 25 431 19T421 8T400 2T365 0Q285 0 235 0T135 1T54 1H31Q28 4 26 8T23 16T21 25T20 33Q20
41 21 47T24 58T29 69T38 81L366 466L44 465Q42 467 41 469T39 474T38 480T37 486Q37 494 40 499T50 509T71 515T108 518L427 517Q430 514 431 510T434 502T436 494T437 487Z" />
<glyph unicode="[" glyph-name="bracketleft" horiz-adv-x="286" d="M240 -142Q240 -152 237 -157T225 -166T196 -171T141 -173Q121 -173 111 -171T94 -163T86 -146T84 -116V540Q84 560 86 570T94 587T110 595T141 598Q176 598 196 597T225 592T237 583T240 567Q240
564 240 562T239 558T237 553T235 549L146 547L144 -122L235 -124Q236 -126 237 -128T238 -132T239 -137T240 -142Z" />
<glyph unicode="\" glyph-name="backslash" horiz-adv-x="319" d="M281 1Q278 -3 274 -6T265 -11T255 -15T245 -16Q240 -16 236 -15T228 -12T222 -7T217 2L3 520L-12 555Q-9 559 -6 562T3 567T13 570T24 571Q30 571 35 570T45 565T53 556T60 543L281 1Z" />
<glyph unicode="]" glyph-name="bracketright" horiz-adv-x="286" d="M202 -116Q202 -135 200 -146T192 -162T176 -170T145 -173Q110 -173 90 -172T61 -167T49 -158T46 -142Q46 -139 46 -137T47 -133T49 -128T51 -124L140 -122L142 547L51 549Q50 551 49 553T48
557T47 562T46 567Q46 577 49 582T61 591T90 596T145 598Q165 598 175 596T192 587T200 571T202 540V-116Z" />
<glyph unicode="^" glyph-name="asciicircum" horiz-adv-x="380" d="M195 529L67 309Q58 308 51 309T39 313T32 320T29 332Q29 337 29 341T32 351T39 365T51 387L152 560Q157 569 162 574T172 583T183 588T198 589Q204 589 209 589T220 587T229 584T239 579L352
330Q350 325 347 321T338 313T326 309T313 307Q307 307 302 308T294 312T287 319T281 330L195 529Z" />
<glyph unicode="_" glyph-name="underscore" horiz-adv-x="281" d="M219 -2L32 0Q30 3 29 5T27 11T26 17T25 23Q25 29 27 33T32 41T41 46T52 48H249Q250 47 251 45T254 39T255 33T256 26Q256 19 254 14T246 5T234 0T219 -2Z" />
<glyph unicode="`" glyph-name="grave" horiz-adv-x="452" d="M323 501Q323 496 322 492T317 484T311 478T303 475L139 574Q136 576 133 578T129 584T126 592T125 600Q125 605 127 610T132 621T142 630T156 637L304 534Q309 530 312 526T318 518T322 510T323 501Z" />
<glyph unicode="a" glyph-name="a" horiz-adv-x="460" d="M463 32Q463 23 459 17T445 6T421 -1T385 -4Q367 -4 354 0T331 15T316 44T311 88Q309 67 298 50T267 21T220 3T159 -4Q129 -4 106 3T66 24T42 57T33 100Q33 126 43 146T73 181T125 203T201 211Q211 211
224 211T254 209T285 207T315 203L316 269Q316 290 311 305T295 330T265 345T222 350Q203 350 185 346T148 335T113 318T81 296Q73 297 68 299T59 305T54 314T52 326Q52 338 65 351T101 375T158 394T232 402Q269 402 296 394T342 370T369 331T378 276L376 98Q376
83 378 74T385 59T398 51T420 48Q424 48 428 48T437 48T446 49T454 51Q456 50 457 48T460 43T462 37T463 32ZM312 161Q300 163 288 164T264 167T239 168T214 169Q185 169 163 166T126 154T104 134T96 105Q96 89 101 77T117 57T143 44T179 39Q197 39 215 43T251
55T284 76T311 103L312 161Z" />
<glyph unicode="b" glyph-name="b" horiz-adv-x="456" d="M419 215Q419 161 405 120T363 51T296 9T209 -5Q162 -5 133 0T90 15T70 38T65 72V542Q65 553 66 560T71 573T80 580T95 583Q100 583 104 583T113 582T122 580T129 578L128 527V388Q128 378 128 365T127
341T126 311Q129 332 140 349T170 378T209 396T255 402Q299 402 330 390T381 355T410 297T419 215ZM359 206Q359 243 353 271T334 317T299 344T246 354Q228 354 211 349T178 334T150 314T128 290L127 77Q127 66 129 60T140 49T165 42T213 39Q249 39 276 50T322
82T350 135T359 206Z" />
<glyph unicode="c" glyph-name="c" horiz-adv-x="397" d="M370 50Q370 37 360 27T331 10T282 -1T214 -5Q174 -5 142 7T86 43T50 102T37 185Q37 232 52 272T97 341T169 386T264 402Q287 402 305 399T336 391T354 377T361 360Q361 356 360 352T357 344T351 337T342
332Q329 337 318 340T296 345T274 348T248 349Q210 349 182 338T136 307T109 258T100 197Q100 158 107 129T131 82T172 54T232 44Q249 44 265 46T297 52T327 61T354 74Q358 72 361 70T366 65T369 58T370 50Z" />
<glyph unicode="d" glyph-name="d" horiz-adv-x="468" d="M464 26Q464 17 460 12T447 3T423 -2T384 -3Q375 -3 367 -3T351 -2T338 0T325 2L331 77Q329 59 319 44T291 19T252 3T205 -3Q166 -3 135 8T82 43T49 102T37 185Q37 232 52 272T97 341T166 386T255 402Q267
402 278 402T298 400T316 397T329 393V542Q329 553 330 560T335 573T345 580T360 583Q365 583 369 583T378 582T387 580T394 578L392 527Q392 520 392 484T392 403T392 302T392 235Q392 206 392 183T392 135T392 85T391 42L459 43Q460 42 461 40T462 36T463 31T464
26ZM329 99V344Q319 346 310 347T291 350T271 351T248 352Q210 352 182 341T136 308T108 259T99 197Q99 157 106 129T127 81T165 53T223 44Q238 44 253 48T283 59T309 77T329 99Z" />
<glyph unicode="e" glyph-name="e" horiz-adv-x="436" d="M399 66Q399 56 389 44T357 20T302 2T224 -5Q180 -5 146 7T87 43T51 102T38 182Q38 230 50 270T88 340T152 386T242 402Q277 402 305 392T355 365T387 324T398 273Q398 250 396 235T389 210T379 196T367
192H102Q102 154 110 126T135 80T180 52T245 43Q261 43 278 46T312 56T346 71T379 92Q385 90 388 88T394 82T398 75T399 66ZM338 232Q343 260 337 283T316 322T278 348T226 357Q198 357 176 348T139 322T115 282T104 232H338Z" />
<glyph unicode="f" glyph-name="f" horiz-adv-x="270" d="M287 555Q287 552 287 549T286 544T284 540T280 536Q276 537 270 537T255 538T239 539T226 540Q194 540 178 536T155 517T145 475T142 389L241 390Q242 388 243 386T244 382T245 377T246 372Q246 363 243
357T234 347T218 341T194 339Q185 339 182 339T176 339T163 339T142 340L141 2Q139 1 136 0T129 -1T121 -2T110 -3Q99 -3 93 -1T84 6T79 19T78 40V154Q78 174 78 198T78 246T79 295T80 341L20 342Q19 344 19 346T18 350T17 354T16 360Q16 369 20 374T32 383T52
388T81 389Q81 449 89 487T114 548T159 578T227 587Q243 587 255 585T274 578T284 568T287 555Z" />
<glyph unicode="g" glyph-name="g" horiz-adv-x="458" d="M333 253Q333 278 327 297T307 330T274 351T225 358Q199 358 177 350T139 327T114 290T105 240Q105 216 112 198T132 168T166 150T214 144Q244 144 266 151T304 172T326 206T333 253ZM426 368Q426 361
424 356T418 347T408 342T392 340Q383 340 378 340T368 340T356 342T344 344L333 347L341 344Q354 339 363 332T379 314T389 289T393 257Q393 222 381 194T346 145T288 113T209 102Q203 102 197 102T186 102T174 104T162 106Q153 103 145 98T132 88T123 75T119
61Q119 54 122 50T132 42T152 36T182 33Q200 32 215 32T251 30T288 28T321 26Q346 25 363 19T392 3T408 -21T413 -51Q413 -78 400 -103T361 -148T294 -180T202 -192Q153 -192 119 -186T63 -167T32 -135T22 -89Q22 -73 27 -59T42 -33T66 -13T96 -2Q86 1 79 6T67
17T60 30T58 47Q58 58 62 68T76 88T98 103T130 113Q111 117 95 126T68 151T50 186T43 233Q43 268 55 298T92 352T151 389T230 402Q242 402 255 401T283 399T311 395T335 388L420 389Q422 387 423 385T424 380T425 374T426 368ZM350 -68Q350 -56 348 -48T337 -35T313
-28T271 -24Q249 -23 227 -22T186 -20T150 -17T123 -13Q112 -18 104 -25T89 -40T80 -58T77 -78Q77 -96 84 -109T108 -130T151 -143T213 -148Q244 -148 269 -142T313 -124T340 -98T350 -68Z" />
<glyph unicode="h" glyph-name="h" horiz-adv-x="473" d="M468 27Q468 19 463 13T449 4T424 -1T388 -3Q368 -3 358 -2T343 5T336 20T334 52Q334 62 334 88T335 161T336 231T337 264Q337 288 333 304T318 331T289 347T244 352Q229 352 212 348T179 335T149 315T127
290V2Q125 1 123 0T117 -1T109 -2T98 -3Q87 -3 81 -1T71 5T67 18T66 40Q66 45 66 77T66 142T65 219T65 310Q65 370 65 402T65 461T65 508T66 542Q66 553 67 560T72 573T81 580T96 583Q101 583 105 583T114 582T121 580T129 578L128 527L127 379Q127 367 127 357T127
339T126 323Q133 341 146 355T177 380T217 395T265 401Q300 401 325 394T366 372T389 333T397 276Q397 253 397 230T397 175T397 109T395 45H463Q464 43 465 41T466 36T467 32T468 27Z" />
<glyph unicode="i" glyph-name="i" horiz-adv-x="233" d="M168 526Q168 518 166 512T159 500T145 491T124 487Q113 487 105 489T92 496T84 508T81 524Q81 532 84 539T94 551T108 560T128 563Q139 563 147 560T159 552T166 541T168 526ZM154 370L153 2Q151 1 148
0T141 -1T133 -2T122 -3Q112 -3 106 -2T97 5T92 18T90 40V154Q90 174 90 198T90 249T91 300T92 346H21Q20 348 19 350T18 354T17 358T16 362Q16 370 19 375T30 385T53 391T94 393Q113 393 124 392T142 388T151 381T154 370Z" />
<glyph unicode="j" glyph-name="j" horiz-adv-x="233" d="M168 526Q168 518 166 512T159 500T145 491T124 487Q113 487 105 489T92 496T84 508T81 524Q81 532 84 539T94 551T108 560T128 563Q139 563 147 560T159 552T166 541T168 526ZM154 370L152 -3Q152 -53
144 -86T120 -139T83 -166T33 -174Q21 -174 12 -172T-3 -166T-11 -157T-14 -144Q-14 -141 -14 -139T-13 -134T-11 -129T-8 -125Q15 -125 30 -124T55 -121T70 -116T80 -107Q83 -103 84 -96T87 -73T90 -30T91 40Q91 91 91 125T91 196T91 272T93 346H20Q19 348 18
350T17 354T16 358T16 362Q16 370 19 375T30 385T53 391T94 393Q113 393 124 392T142 388T151 381T154 370Z" />
<glyph unicode="k" glyph-name="k" horiz-adv-x="421" d="M408 28Q408 21 405 15T394 5T374 -1T346 -3Q333 -3 325 -2T312 3T302 11T289 27L170 189L127 156V2Q125 1 123 0T117 -1T109 -2T98 -3Q87 -3 81 -1T72 6T67 19T66 40Q66 45 66 77T66 142T65 219T65 310Q65
370 65 402T65 461T65 508T66 542Q66 553 67 560T72 573T81 580T96 583Q101 583 105 583T114 582T121 580T129 578L128 527L127 215L315 375Q321 381 326 384T335 390T344 393T355 394Q361 394 366 393T374 388T378 381T380 372Q380 371 380 370T380 368T379 366T378
363L216 226L358 45H403Q404 44 405 42T406 38T407 33T408 28Z" />
<glyph unicode="l" glyph-name="l" horiz-adv-x="231" d="M204 26Q204 18 200 13T187 4T161 -1T120 -3Q101 -3 91 -2T75 5T67 22T65 53V542Q65 553 66 560T71 573T81 580T96 583Q101 583 105 583T114 582T122 580T129 578L128 527L127 44L200 45Q201 43 202 41T203
37T204 32T204 26Z" />
<glyph unicode="m" glyph-name="m" horiz-adv-x="744" d="M658 -3Q638 -3 628 -2T613 5T606 19T604 49Q604 61 604 86T605 155T606 221T607 252Q607 281 604 299T591 329T563 346T515 352Q501 352 486 348T455 334T427 314T404 289L403 2Q401 1 398 0T391 -1T383
-2T372 -3Q362 -3 356 -1T347 5T342 18T340 40Q340 51 340 79T341 157T342 230T343 264Q343 287 339 303T326 330T300 346T257 352Q241 352 225 348T192 335T163 315T141 290V2Q139 1 136 0T129 -1T121 -2T110 -3Q99 -3 93 -1T84 5T79 18T78 40V154Q78 183 78 205T78
253T78 303T80 346H12Q11 348 10 350T9 354T8 358T7 362Q7 370 10 375T21 385T44 391T85 393Q94 393 102 393T119 392T133 390T145 388L139 312Q141 331 153 347T184 376T227 394T277 401Q307 401 329 395T365 378T388 352T400 318Q403 336 415 351T446 377T489
395T539 401Q575 401 599 394T639 371T660 332T667 276Q667 253 667 230T667 175T667 109T665 45H734Q735 43 736 41T737 37T738 32T739 27Q739 18 734 12T719 3T695 -1T658 -3Z" />
<glyph unicode="n" glyph-name="n" horiz-adv-x="485" d="M479 27Q479 18 474 12T460 3T436 -1T401 -3Q380 -3 370 -2T355 5T348 20T346 52Q346 62 346 88T347 161T348 231T349 264Q349 288 345 304T329 331T301 347T256 352Q241 352 224 348T192 335T163 315T141
290V2Q139 1 136 0T129 -1T121 -2T110 -3Q99 -3 93 -1T84 6T79 19T78 40V154Q78 183 78 205T78 253T78 303T80 346H12Q11 348 10 350T9 354T8 358T7 362Q7 370 10 375T21 385T44 391T85 393Q94 393 102 393T119 392T133 390T145 388L139 312Q141 331 152 347T183
376T226 394T276 401Q311 401 336 394T378 372T402 333T410 276Q410 261 410 235T410 177T409 110T407 45H475Q476 43 477 41T478 36T479 32T479 27Z" />
<glyph unicode="o" glyph-name="o" horiz-adv-x="457" d="M420 212Q420 163 405 123T363 54T300 10T220 -5Q176 -5 142 7T85 43T49 102T37 183Q37 232 52 272T94 342T158 386T241 402Q286 402 320 389T376 350T409 290T420 212ZM358 203Q358 238 351 266T328 315T290
345T236 356Q204 356 179 346T136 314T109 262T99 191Q99 154 107 126T131 80T171 52T229 42Q259 42 283 54T323 87T349 138T358 203Z" />
<glyph unicode="p" glyph-name="p" horiz-adv-x="468" d="M371 206Q371 243 365 270T346 316T311 344T258 353Q240 353 222 348T189 334T162 314T140 290L139 57Q147 54 157 52T179 47T202 43T225 42Q261 42 288 52T334 84T362 135T371 206ZM431 215Q431 163 418
123T379 54T317 12T235 -2Q220 -2 207 -1T181 2T159 7T139 14V-172Q137 -173 134 -174T127 -175T119 -176T108 -177Q99 -177 94 -176T85 -173T80 -167T77 -157Q77 -155 77 -153T76 -147T76 -142T76 -134V118Q76 176 76 206T76 263T76 309T77 346H9Q8 348 7 350T6
354T5 358T4 362Q4 370 7 375T18 385T41 391T82 393Q91 393 99 393T116 392T130 390T142 388L138 311Q142 333 154 350T183 378T222 395T267 401Q311 401 342 390T393 355T422 297T431 215Z" />
<glyph unicode="q" glyph-name="q" horiz-adv-x="457" d="M392 -172Q390 -173 387 -174T380 -175T371 -176T360 -177Q351 -177 346 -176T337 -173T332 -167T329 -157Q329 -155 329 -153T329 -147T328 -140T328 -134V4Q328 15 328 27T329 50T331 77Q329 59 319
44T291 19T252 3T205 -3Q166 -3 135 8T82 43T49 102T37 185Q37 232 52 272T97 341T169 386T264 402Q295 402 319 399T359 390T384 377T392 362V-172ZM329 99V342Q321 344 313 346T296 349T276 351T253 352Q212 352 183 340T135 307T109 258T100 197Q100 157 106
129T127 81T165 53T223 44Q238 44 253 48T283 59T309 77T329 99Z" />
<glyph unicode="r" glyph-name="r" horiz-adv-x="315" d="M293 371Q293 367 293 363T291 356T288 349T284 344Q258 345 244 345T220 342T205 336T193 323Q187 315 181 305T168 282T154 257T141 228V2Q139 1 136 0T129 -1T121 -2T110 -3Q99 -3 93 -1T83 6T79 18T78
40V154Q78 183 78 205T78 253T78 303T80 346H12Q11 348 10 350T9 354T8 358T7 362Q7 370 10 375T21 385T44 391T85 393Q94 393 102 393T119 392T133 390T145 388L139 281Q150 319 160 342T183 378T211 395T250 400Q261 400 269 399T282 394T290 385T293 371Z" />
<glyph unicode="s" glyph-name="s" horiz-adv-x="403" d="M370 116Q370 92 361 71T333 33T281 7T202 -3Q161 -3 130 2T79 18T49 40T39 67Q39 72 40 77T45 86T54 94T65 99Q75 87 90 77T123 58T163 46T204 41Q227 41 246 44T279 54T302 73T310 101Q310 113 305 122T291
139T270 150T241 157Q220 161 203 165T170 173T144 180T123 187Q103 194 90 202T69 222T58 247T55 278Q55 304 66 326T100 366T156 392T231 402Q263 402 287 398T329 385T354 366T363 341Q363 336 361 331T356 323T349 316T338 311Q326 321 312 329T282 343T250
352T218 355Q193 355 174 351T141 338T121 317T114 289Q114 277 117 268T127 251T147 237T180 225Q195 222 204 220T226 214T251 208T280 202Q303 197 320 189T348 170T364 146T370 116Z" />
<glyph unicode="t" glyph-name="t" horiz-adv-x="328" d="M315 43Q315 31 306 22T280 7T238 -2T181 -5Q152 -5 133 1T101 21T83 58T77 114Q77 139 77 166T77 222T78 279T79 340L15 341Q14 343 13 345T12 349T11 354T10 360Q10 368 14 373T26 382T48 387T80 389L79
464Q79 473 81 480T86 492T96 501T111 504Q116 504 121 504T130 502T138 500T145 498L141 389L286 390Q287 388 288 386T289 381T290 375T291 370Q291 361 288 355T279 345T264 340T239 338Q228 338 218 338T196 338T169 338T141 339V131Q141 103 143 86T151 60T169
48T199 44Q210 44 222 46T247 51T272 58T295 69Q301 67 304 65T310 59T314 52T315 43Z" />
<glyph unicode="u" glyph-name="u" horiz-adv-x="489" d="M479 28Q479 19 475 13T462 4T437 -1T400 -3Q391 -3 383 -3T367 -2T353 0T341 2L346 79Q344 59 333 43T302 14T258 -4T205 -10Q170 -10 146 -3T107 19T86 57T79 115Q79 128 79 152T80 204T82 277T84 346H15Q14
348 13 350T12 354T11 358T10 362Q10 370 13 375T24 385T47 391T88 393Q110 393 121 392T137 386T143 375T145 352Q145 342 145 314T143 237T141 162T140 127Q140 104 144 88T157 61T182 45T225 39Q241 39 258 43T292 56T323 76T345 101V360Q345 368 347 374T353
384T363 390T379 392Q384 392 388 392T395 391T401 389T407 386V44H475Q476 43 477 41T478 37T479 33T479 28Z" />
<glyph unicode="v" glyph-name="v" horiz-adv-x="418" d="M400 363Q400 355 397 344T387 313T367 262T331 179Q298 104 288 82T268 39T249 0Q245 -1 241 -2T233 -3T224 -4T214 -5Q204 -5 198 -4T186 2T176 14T166 36L50 345H11Q10 346 9 348T7 354T6 360T5 366Q5
373 9 378T21 387T41 391T70 393Q79 393 84 392T95 387T104 376T113 357Q119 343 135 298T171 199T224 54L357 390Q360 391 362 391T366 392T368 392T373 392Q381 392 386 391T394 386T398 377T400 363Z" />
<glyph unicode="w" glyph-name="w" horiz-adv-x="648" d="M630 363Q630 355 627 342T618 309T600 259T571 179Q560 149 549 122T529 70T512 28T499 0Q495 -1 491 -2T483 -3T473 -4T463 -5Q453 -5 447 -4T435 1T425 13T416 36L338 290L227 0Q223 -1 220 -2T212
-3T204 -4T194 -5Q183 -5 177 -4T165 1T155 13T146 36L50 345H11Q10 346 9 348T7 354T6 360T5 366Q5 373 9 378T21 387T41 391T70 393Q79 393 84 392T95 387T104 376T113 357Q119 343 132 298T161 202T203 60L322 390Q326 391 328 391T333 392T337 392T344 392Q353
392 358 391T366 386T372 376T379 356Q384 342 398 297T428 201T473 60L587 390Q590 391 592 391T595 392T597 392T603 392Q611 392 616 391T624 386T628 377T630 363Z" />
<glyph unicode="x" glyph-name="x" horiz-adv-x="403" d="M390 28Q390 20 387 14T376 4T358 -2T333 -4Q319 -4 312 -3T299 1T290 10T277 29L198 150L80 0Q79 0 75 -1T69 -2T64 -3T59 -3Q52 -3 47 -2T39 3T35 10T33 20Q33 25 34 29T37 38T45 49T58 66L166 194L64
345H18Q16 347 15 349T14 354T13 358T12 364Q12 371 16 376T28 386T48 391T77 393Q89 393 95 393T107 390T116 382T126 368L208 243L325 387Q328 388 330 389T336 391T342 392T350 392Q355 392 358 391T365 387T369 380T371 371Q371 367 370 363T366 353T359 342T350
330L240 199L347 45H385Q386 44 387 42T388 37T389 32T390 28Z" />
<glyph unicode="y" glyph-name="y" horiz-adv-x="418" d="M400 363Q400 355 398 344T388 313T367 262T333 180Q323 158 310 129T282 68T254 11T231 -34Q208 -79 189 -106T152 -150T112 -172T62 -179Q49 -179 40 -177T25 -170T18 -159T15 -145Q15 -143 15 -140T17
-135T19 -129T24 -124Q27 -124 29 -124T36 -124T43 -125T48 -125Q77 -125 93 -121T124 -105T152 -69T192 1Q188 3 185 5T178 12T172 22T166 38L50 345H11Q10 346 9 348T7 354T6 360T5 366Q5 373 9 378T21 387T41 391T70 393Q79 393 85 392T95 387T104 376T113 357L222
58Q248 118 266 162T302 247T332 324T357 390Q360 391 362 391T366 392T368 392T373 392Q381 392 386 391T394 386T398 377T400 363Z" />
<glyph unicode="z" glyph-name="z" horiz-adv-x="386" d="M358 30Q358 21 355 16T344 7T323 2T288 0Q238 0 205 0T135 1T66 1H39Q37 4 36 8T33 16T32 23T31 31Q31 39 32 45T35 57T42 68T51 80L275 343L49 342Q47 344 46 346T45 352T44 358T43 364Q43 371 46 376T57
386T76 392T105 394L336 393Q338 389 339 386T341 379T342 372T343 365Q343 357 342 350T336 335T327 319T313 301L94 47L353 48Q354 46 355 44T356 40T357 35T358 30Z" />
<glyph unicode="{" glyph-name="braceleft" horiz-adv-x="358" d="M327 568Q327 566 327 565T327 561T325 557T323 553Q287 553 264 549T227 534T207 506T201 461Q201 444 202 428T206 389T210 349T212 315Q212 298 208 281T192 249T163 223T118 209Q143 209 161
201T189 179T204 148T209 111Q209 89 209 72T207 35T206 2T205 -25Q205 -61 208 -79T221 -106T249 -120T306 -126Q306 -127 306 -129T307 -135T308 -140T308 -146Q308 -151 306 -155T297 -163T281 -168T256 -170Q228 -170 207 -164T170 -145T147 -109T139 -53Q139
-28 139 -11T141 25T142 55T143 84Q143 108 138 125T120 154T85 172T29 178Q27 181 26 184T23 192T21 200T20 209Q20 214 21 218T25 225T33 231T45 233Q74 236 93 243T125 261T142 289T147 331Q147 345 146 360T141 400T136 440T134 470Q134 497 143 520T171 560T216
587T275 597Q291 597 301 595T317 589T325 580T327 568Z" />
<glyph unicode="|" glyph-name="bar" horiz-adv-x="248" d="M153 600V577L151 -173Q151 -178 149 -182T144 -188T135 -192T124 -194Q120 -194 117 -194T110 -194T104 -192T97 -190L94 577Q94 583 96 588T102 598T112 604T127 606Q132 606 135 606T142 605T148
603T153 600Z" />
<glyph unicode="}" glyph-name="braceright" horiz-adv-x="358" d="M338 217Q338 212 337 208T333 201T325 196T313 193Q284 190 265 184T233 166T216 138T211 96Q211 82 212 67T217 27T222 -13T224 -43Q224 -70 215 -93T187 -133T142 -160T82 -170Q67 -170 57
-168T41 -163T33 -154T31 -142Q31 -140 31 -138T31 -135T33 -131T35 -127Q71 -127 94 -123T131 -108T151 -80T157 -34Q157 -17 156 -1T152 38T148 78T146 111Q146 128 150 145T166 177T195 204T240 218Q215 218 197 226T169 247T154 278T149 316Q149 338 149 355T151
392T152 424T153 451Q153 487 150 505T137 532T109 546T52 552Q51 554 51 556T50 561T49 567T49 572Q49 577 52 581T61 589T77 595T102 597Q130 597 151 591T188 572T211 535T219 480Q219 455 219 438T217 402T216 372T215 343Q215 319 220 302T238 273T273 255T328
248Q330 245 332 242T335 235T337 227T338 217Z" />
<glyph unicode="~" glyph-name="asciitilde" horiz-adv-x="431" d="M374 231Q374 218 368 207T351 186T325 172T294 167Q271 167 252 171T207 185T167 198T136 202Q127 202 120 200T107 192T96 178T86 157Q79 157 73 159T64 165T58 175T56 189Q56 202 61 214T77
235T103 249T137 255Q158 255 178 250T224 235T265 220T294 215Q303 215 310 217T324 225T336 239T344 260Q351 261 356 260T366 254T372 245T374 231Z" />
</font>
</defs>
</svg>
