<?xml version="1.0" encoding="utf-8"?>
<!-- Generator: Adobe Illustrator 21.0.0, SVG Export Plug-In . SVG Version: 6.00 Build 0)  -->
<svg version="1.1" id="Layer_1" xmlns="http://www.w3.org/2000/svg" xmlns:xlink="http://www.w3.org/1999/xlink" x="0px" y="0px"
	 viewBox="0 0 135 40" style="enable-background:new 0 0 135 40;" xml:space="preserve">
<style type="text/css">
	.st0{fill:#FFFFFF;}
</style>
<path class="st0" d="M12.3,13.3c0.8,0.3,1.4,1,1.4,1.9v24.1c-0.6,0.3-1.3,0.5-2,0.6c-0.9,0.1-1.7,0.1-2.6,0.1
	c-1.2,0-2.3-0.1-3.4-0.6c-0.8-0.4-1.4-1.2-1.4-2.1c0-1-0.1-2.3-0.1-3.8c0-1.5,0-3.5,0-6c0-2.7,0-5.5,0.1-8.6l-3.6-0.1
	c-0.2-0.4-0.4-0.8-0.5-1.2C0,17.1,0,16.7,0,16.2C0,15,0.6,14,1.7,13.5c1.8-0.7,3.8-1,5.8-0.9C9.1,12.5,10.8,12.7,12.3,13.3
	 M12.9,7.5c-0.8,0.9-2.1,1.3-4.1,1.3c-1.3,0.1-2.5-0.2-3.6-1C4.4,7,4,5.8,4.1,4.6c0-1.2,0.4-2.4,1.3-3.3c1.1-0.9,2.5-1.4,4-1.3
	C10.7-0.1,12,0.3,13,1.3c0.7,0.9,1.1,1.9,1,3C14,5.5,13.6,6.6,12.9,7.5 M40.1,20.5c-1-0.4-2.1-0.7-3.2-0.9c-1.1-0.2-2.1-0.3-3.2-0.3
	c-2.2,0-3.8,0.5-4.8,1.6c-1,1-1.5,2.9-1.5,5.5c0,2.7,0.4,4.5,1.3,5.5c0.9,1,2.4,1.5,4.5,1.5c2.4,0,4.9-0.6,7.1-1.6
	c0.7,0.2,1.3,0.7,1.6,1.4c0.3,0.6,0.5,1.3,0.5,2c0,1.8-1,3.1-3,3.9c-2.7,0.9-5.5,1.2-8.3,1.1c-4.6,0-7.9-1-10.1-3s-3.2-5.2-3.2-9.5
	c0-2.2,0.3-4.4,1.1-6.4c0.7-1.8,1.8-3.4,3.3-4.7c1.5-1.3,3.2-2.3,5.1-2.9c2.2-0.7,4.4-1,6.7-1c2.9,0,5,0.4,6.3,1.2
	c1.2,0.6,1.9,1.7,2,3.1c0,0.8-0.2,1.6-0.5,2.3C41.3,19.6,40.8,20.2,40.1,20.5 M73.6,39.1c-1.7,0.7-3.5,1.1-5.4,0.9
	c-1.4,0.1-2.9-0.2-4.2-0.8c-1-0.5-1.5-1.8-1.5-3.7v-1c-0.3,1.8-1.4,3.4-3,4.2c-1.9,0.9-4,1.4-6.1,1.3c-3,0-5.2-0.7-6.6-2
	c-1.4-1.4-2.2-3.4-2.1-5.4c-0.2-2.4,0.9-4.7,2.9-6.2c1.9-1.4,4.9-2.1,9-2.1c0.9,0,1.8,0,2.7,0.1c0.9,0.1,1.7,0.1,2.7,0.2v-2.5
	c0.2-0.9-0.2-1.9-0.9-2.5c-1.1-0.5-2.3-0.7-3.4-0.6c-1.5,0-2.9,0.3-4.2,0.9c-1.3,0.5-2.5,1.3-3.5,2.3c-1.1,0-2.2-0.4-3-1.2
	c-0.6-0.7-0.9-1.7-0.8-2.6c0-0.8,0.3-1.5,0.8-2.1c0.7-0.8,1.5-1.4,2.5-1.9c1.3-0.6,2.7-1.1,4.2-1.3c2-0.4,3.9-0.5,5.9-0.5
	c1.6,0,3.3,0.2,4.9,0.6c1.3,0.3,2.6,0.9,3.7,1.7c2.1,1.5,3.3,4,3.2,6.6L71.1,31c-0.1,0.7,0,1.5,0.3,2.2c0.4,0.4,0.9,0.6,1.4,0.5h0.7
	c0.3,0,0.6,0,0.9-0.1c0.4,0.3,0.6,0.7,0.7,1.2c0.1,0.4,0.2,0.9,0.2,1.4C75.3,37.3,74.7,38.5,73.6,39.1 M60,28.8
	c-0.5,0-1.2-0.1-2-0.1c-1.1-0.1-2.2,0.2-3.2,0.7c-0.7,0.6-1.1,1.5-1,2.4c-0.1,0.7,0.2,1.4,0.8,1.9c0.6,0.4,1.3,0.7,2,0.6
	c1.1,0,2.1-0.1,3.1-0.5c0.8-0.4,1.5-0.9,2.2-1.5v-3.3C61.1,28.9,60.5,28.9,60,28.8 M98.3,20.3c-0.5,0-0.9-0.1-1.2-0.1
	c-0.3,0-0.7,0-1,0c-0.8,0-1.7,0.1-2.5,0.3c-0.6,0.2-1.2,0.5-1.7,0.9c-0.6,0.5-1.1,1.1-1.5,1.8c-0.5,0.8-1,1.8-1.5,2.9v13.2
	c-0.7,0.3-1.5,0.5-2.2,0.6c-0.9,0.1-1.7,0.1-2.4,0.1c-1.2,0.1-2.4-0.1-3.5-0.6c-0.8-0.4-1.3-1.2-1.3-2.1c0-1-0.1-2.1-0.1-3.3
	c0-1.2,0-2.5,0-3.9v-4c0-1.3,0-2.5,0-3.6c0-1,0-1.9,0-2.5v-1l-3.3-0.1c-0.2-0.4-0.4-0.8-0.5-1.3c-0.1-0.5-0.1-1-0.1-1.5
	c-0.1-1.1,0.6-2.2,1.6-2.7c1-0.6,2.9-0.9,5.6-0.9c2.1-0.1,4.2,0.2,6.2,0.9l-1,7c0.4-1.3,0.9-2.7,1.5-4c0.4-0.9,0.9-1.7,1.6-2.4
	c0.6-0.6,1.2-1,2-1.2c0.9-0.2,1.8-0.3,2.8-0.3c1.2-0.1,2.3,0.3,3.1,1.2c0.6,0.8,0.9,1.7,0.9,2.7c0,0.8-0.1,1.6-0.4,2.3
	C98.9,19.3,98.6,19.8,98.3,20.3 M123.8,15c2,1.7,3.2,4.2,3.1,6.8c0,1-0.1,2-0.2,3c-0.1,0.6-0.3,1.2-0.6,1.8
	c-0.2,0.4-0.5,0.7-0.8,0.9c-0.3,0.2-0.7,0.3-1.1,0.3h-14.9c0,0.8,0.1,1.6,0.2,2.4c0.1,0.7,0.4,1.3,0.8,1.8c0.5,0.5,1.1,0.9,1.7,1.2
	c1,0.3,1.9,0.5,2.9,0.4c1.5,0,3.1-0.2,4.6-0.5c1.6-0.3,3.2-0.8,4.7-1.6c0.7,0.2,1.2,0.7,1.5,1.3c0.3,0.6,0.5,1.2,0.5,1.9
	c0,1.8-1.2,3.2-3.6,4.1c-3.2,1-6.5,1.5-9.8,1.3c-4.4,0-7.7-1-9.9-2.9c-2.3-2-3.4-5.2-3.4-9.6c0-2.1,0.3-4.2,1.1-6.2
	c0.7-1.8,1.8-3.4,3.1-4.7c1.4-1.3,3.2-2.4,5-3c2.1-0.7,4.4-1.1,6.7-1.1C119,12.4,121.8,13.3,123.8,15 M117.6,22.4
	c0-1-0.2-1.9-0.6-2.8c-0.4-0.7-1.2-1.1-2.6-1.1c-1.2-0.1-2.5,0.3-3.4,1.1c-0.9,1-1.5,2.3-1.5,3.7h8
	C117.6,23.1,117.6,22.8,117.6,22.4 M127.5,11c0,0,0-0.1,0-0.1c0-0.1,0-0.2,0.1-0.3c0.1-0.1,0.3-0.1,0.5-0.1h2l0.4,0
	c0,0,0,0.1,0.1,0.1c0,0,0,0.1,0,0.1c0,0.1,0,0.2-0.1,0.3c-0.1,0.1-0.3,0.1-0.4,0.1h-0.5l0,2.7c-0.1,0-0.1,0.1-0.2,0.1
	c-0.1,0-0.2,0-0.3,0c-0.3,0-0.4-0.1-0.4-0.2c0-0.1,0-0.2,0-0.4s0-0.5,0-0.9V12c0-0.1,0-0.3,0-0.4s0-0.2,0-0.3v-0.1h-0.9
	C127.6,11.1,127.5,11,127.5,11 M133,13.5c-0.1,0-0.1,0-0.2,0c-0.1,0-0.2,0-0.3,0c-0.1,0-0.1-0.1-0.2-0.2l-0.7-1.6v2.2
	c0,0-0.1,0-0.1,0c-0.1,0-0.1,0-0.2,0c-0.1,0-0.2,0-0.3-0.1c-0.1,0-0.1-0.1-0.1-0.2c0-0.1,0-0.2,0-0.5s0-0.5,0-0.9c0-0.2,0-0.5,0-0.7
	s0-0.4,0-0.6l-0.3,0c0,0,0-0.1,0-0.1c0,0,0-0.1,0-0.1c0-0.1,0-0.1,0-0.2c0,0,0.1-0.1,0.1-0.1c0.1,0,0.2,0,0.3-0.1c0.1,0,0.3,0,0.4,0
	c0.1,0,0.2,0,0.3,0c0.1,0,0.2,0,0.2,0.1c0.1,0,0.1,0.1,0.1,0.1c0,0.1,0.1,0.1,0.1,0.2l0.7,1.6l0.8-1.7c0-0.1,0.1-0.2,0.2-0.2
	c0.1,0,0.2-0.1,0.3-0.1c0.1,0,0.3,0,0.4,0c0.1,0,0.2,0.1,0.2,0.1l0,0.5v2.7c-0.1,0-0.1,0.1-0.2,0.1c-0.1,0-0.2,0-0.3,0
	c-0.1,0-0.2,0-0.3-0.1c-0.1,0-0.1-0.1-0.1-0.2c0-0.1,0-0.2,0-0.4s0-0.5,0-0.9c0-0.2,0-0.5,0-0.8l-0.8,1.8
	C133.2,13.4,133.1,13.5,133,13.5"/>
</svg>
