<svg id="Card_Component_Icon" data-name="Card Component Icon" xmlns="http://www.w3.org/2000/svg" width="47.223" height="47.223" viewBox="0 0 47.223 47.223">
  <g id="Group_226" data-name="Group 226" transform="translate(14.197 14.985)">
    <g id="Group_225" data-name="Group 225">
      <path id="Path_151" data-name="Path 151" d="M155.449,162.472h-.789a.739.739,0,0,0,0,1.479h.789a.739.739,0,0,0,0-1.479Z" transform="translate(-153.921 -162.472)" fill="#702081"/>
    </g>
  </g>
  <g id="Group_228" data-name="Group 228" transform="translate(22.872 14.985)">
    <g id="Group_227" data-name="Group 227">
      <path id="Path_152" data-name="Path 152" d="M249.511,162.472h-.789a.739.739,0,0,0,0,1.479h.789a.739.739,0,1,0,0-1.479Z" transform="translate(-247.983 -162.472)" fill="#702081"/>
    </g>
  </g>
  <g id="Group_230" data-name="Group 230" transform="translate(5.522 3.155)">
    <g id="Group_229" data-name="Group 229">
      <path id="Path_153" data-name="Path 153" d="M84.991,44.542A11.006,11.006,0,0,0,74.019,34.205H62.977a.747.747,0,0,0-.717.919l.559,2.236H60.611a.747.747,0,0,0-.684,1.02c.024.058,1.228,2.992,2.618,6.328a3.1,3.1,0,0,0,2.409,5.723c.519,1.213.972,2.256,1.294,2.96a.739.739,0,0,0,1.406-.221,10.2,10.2,0,0,0,12.73,0,.738.738,0,0,0,1.245.448,10.442,10.442,0,0,0,2.118-2.994,3.106,3.106,0,0,0,1.244-6.082ZM63.766,49.19a1.627,1.627,0,0,1-.651-3.118c.425,1.015.854,2.037,1.261,3A1.618,1.618,0,0,1,63.766,49.19Zm16.612,1.981a8.723,8.723,0,0,1-12.718,0v-7.6H80.377v7.6ZM81.856,51v-8.17a.739.739,0,0,0-.739-.739h-14.2a.739.739,0,0,0-.739.739v6.708c-1.541-3.616-3.595-8.585-4.466-10.7h2.051a.747.747,0,0,0,.717-.919l-.559-2.236H74.019A9.524,9.524,0,0,1,83.532,45.2,11.122,11.122,0,0,1,81.856,51Zm2.478-1.815a12.754,12.754,0,0,0,.641-3.089,1.624,1.624,0,0,1-.641,3.089Z" transform="translate(-59.873 -34.205)" fill="#702081"/>
    </g>
  </g>
  <g id="Group_232" data-name="Group 232" transform="translate(17.351 18.14)">
    <g id="Group_231" data-name="Group 231">
      <path id="Path_154" data-name="Path 154" d="M192.463,196.824a.739.739,0,0,0-1.035.148,1.232,1.232,0,0,1-1.972,0,.739.739,0,0,0-1.183.887,2.711,2.711,0,0,0,4.338,0A.74.74,0,0,0,192.463,196.824Z" transform="translate(-188.125 -196.676)" fill="#702081"/>
    </g>
  </g>
  <g id="Group_234" data-name="Group 234" transform="translate(30.759)">
    <g id="Group_233" data-name="Group 233">
      <path id="Path_155" data-name="Path 155" d="M341.331,0a7.792,7.792,0,0,0-4.466,1.4.739.739,0,1,0,.843,1.215,6.347,6.347,0,1,1-2.259,2.8.739.739,0,0,0-1.367-.564A7.839,7.839,0,1,0,341.331,0Z" transform="translate(-333.493)" fill="#702081"/>
    </g>
  </g>
  <g id="Group_236" data-name="Group 236" transform="translate(33.125 2.366)">
    <g id="Group_235" data-name="Group 235">
      <path id="Path_156" data-name="Path 156" d="M364.62,25.653a5.472,5.472,0,1,0,5.472,5.472A5.478,5.478,0,0,0,364.62,25.653Zm0,9.464a3.993,3.993,0,1,1,3.993-3.993A4,4,0,0,1,364.62,35.117Z" transform="translate(-359.148 -25.653)" fill="#702081"/>
    </g>
  </g>
  <g id="Group_238" data-name="Group 238" transform="translate(37.857 4.732)">
    <g id="Group_237" data-name="Group 237">
      <path id="Path_157" data-name="Path 157" d="M413.971,55.375l-2.037-1.358v-1.97a.739.739,0,0,0-1.479,0v2.366a.739.739,0,0,0,.329.615L413.15,56.6a.739.739,0,1,0,.82-1.23Z" transform="translate(-410.455 -51.307)" fill="#702081"/>
    </g>
  </g>
  <g id="Group_240" data-name="Group 240" transform="translate(0 24.449)">
    <g id="Group_239" data-name="Group 239">
      <path id="Path_158" data-name="Path 158" d="M46.483,280.037a.739.739,0,0,0,.739-.739v-6.375a.739.739,0,0,0-.739-.739H40.519v-.838a2.319,2.319,0,0,0-2.317-2.317H35.047a2.319,2.319,0,0,0-2.317,2.317v.838h-.493v-3.2a3.9,3.9,0,0,0-3.894-3.894H10.992A3.9,3.9,0,0,0,7.1,268.979v3.24a7.837,7.837,0,0,0,.739,15.639H17.3a.739.739,0,1,0,0-1.479H12.411a7.833,7.833,0,0,0-3.834-14.161v-3.24a2.418,2.418,0,0,1,2.415-2.415h5.02l1.322,3.3-1.555,13.221a.739.739,0,0,0,.4.748l3.155,1.577a.746.746,0,0,0,.661,0l3.155-1.577a.739.739,0,0,0,.4-.748L22,269.868l1.322-3.3h5.02a2.418,2.418,0,0,1,2.415,2.415v3.2H26.766a.739.739,0,0,0-.739.739V286.38H21.213a.739.739,0,1,0,0,1.479H46.483a.739.739,0,0,0,.739-.739v-3.943a.739.739,0,0,0-1.479,0v3.2H27.505v-9.666l6.408,2.894v1.99a.739.739,0,0,0,.739.739H38.6a.739.739,0,0,0,.739-.739V279.64l6.408-2.808V279.3A.739.739,0,0,0,46.483,280.037ZM14.2,280.021a6.359,6.359,0,1,1-6.359-6.359A6.366,6.366,0,0,1,14.2,280.021Zm7.534-13.457-.986,2.465H18.591l-.986-2.465h4.125Zm.3,16.183-2.36,1.18-2.36-1.18,1.44-12.239h1.84Zm12.182-11.4a.839.839,0,0,1,.838-.838H38.2a.839.839,0,0,1,.838.838v.838H34.209v-.838Zm3.648,9.514H35.392v-1.676h2.465v1.676Zm1.377-2.789a.738.738,0,0,0-.638-.366H34.653a.738.738,0,0,0-.619.335l-6.529-2.948v-1.429H45.744v1.556Z" transform="translate(0 -265.085)" fill="#702081"/>
    </g>
  </g>
  <g id="Group_242" data-name="Group 242" transform="translate(5.496 33.913)">
    <g id="Group_241" data-name="Group 241">
      <path id="Path_159" data-name="Path 159" d="M61.931,372.431a.814.814,0,1,1,0-1.627h1.577a.739.739,0,0,0,0-1.479h-.887v-.887a.739.739,0,0,0-1.479,0v.96a2.321,2.321,0,0,0,.776,4.512.866.866,0,0,1,.844.863.855.855,0,0,1-.832.863H60.354a.739.739,0,0,0,0,1.479h.789v.789a.739.739,0,0,0,1.479,0v-.96a2.254,2.254,0,0,0,1.6-2.2A2.3,2.3,0,0,0,61.931,372.431Z" transform="translate(-59.59 -367.699)" fill="#702081"/>
    </g>
  </g>
</svg>
