<svg xmlns="http://www.w3.org/2000/svg" width="14.027" height="14.027" viewBox="0 0 14.027 14.027">
  <g id="search" transform="translate(0.5 0.5)">
    <path id="search-2" data-name="search" d="M23.692,12.611l-3.8-3.8a5.055,5.055,0,0,0,1.568-3.645A5.273,5.273,0,0,0,16.1,0a5.273,5.273,0,0,0-5.364,5.165A5.273,5.273,0,0,0,16.1,10.33a5.465,5.465,0,0,0,3.419-1.188l3.8,3.81a.262.262,0,0,0,.361.007A.24.24,0,0,0,23.692,12.611ZM16.1,9.838a4.771,4.771,0,0,1-4.853-4.673A4.771,4.771,0,0,1,16.1.492a4.771,4.771,0,0,1,4.853,4.673A4.771,4.771,0,0,1,16.1,9.838Z" transform="translate(-10.736)" fill="#702081" stroke="#702081" stroke-width="1"/>
  </g>
</svg>
